<?xml version="1.0" encoding="UTF-8" standalone="no"?>
<!-- Created with Inkscape (http://www.inkscape.org/) -->

<svg
   width="208mm"
   height="291mm"
   viewBox="0 0 208 291"
   version="1.1"
   id="svg5"
   inkscape:version="1.1 (c68e22c387, 2021-05-23)"
   sodipodi:docname="template_img.svg"
   xmlns:inkscape="http://www.inkscape.org/namespaces/inkscape"
   xmlns:sodipodi="http://sodipodi.sourceforge.net/DTD/sodipodi-0.dtd"
   xmlns="http://www.w3.org/2000/svg"
   xmlns:svg="http://www.w3.org/2000/svg">
  <sodipodi:namedview
     id="namedview7"
     pagecolor="#505050"
     bordercolor="#ffffff"
     borderopacity="1"
     inkscape:pageshadow="0"
     inkscape:pageopacity="0"
     inkscape:pagecheckerboard="1"
     inkscape:document-units="mm"
     showgrid="false"
     inkscape:snap-smooth-nodes="true"
     inkscape:snap-intersection-paths="true"
     inkscape:object-paths="true"
     inkscape:snap-bbox="false"
     inkscape:bbox-paths="true"
     inkscape:bbox-nodes="true"
     inkscape:snap-bbox-edge-midpoints="true"
     inkscape:snap-bbox-midpoints="true"
     inkscape:snap-nodes="true"
     inkscape:zoom="0.34030583"
     inkscape:cx="-2.9385332"
     inkscape:cy="896.25263"
     inkscape:window-width="1920"
     inkscape:window-height="1009"
     inkscape:window-x="1912"
     inkscape:window-y="-8"
     inkscape:window-maximized="1"
     inkscape:current-layer="text34903" />
  <defs
     id="defs2">
    <rect
       x="516.3474"
       y="575.56632"
       width="238.95353"
       height="484.14062"
       id="rect34905" />
    <rect
       x="322.0678"
       y="821.79235"
       width="142.33319"
       height="285.7053"
       id="rect27803" />
    <rect
       x="326.22351"
       y="835.29842"
       width="72.724987"
       height="249.34281"
       id="rect23189" />
    <rect
       x="36.362493"
       y="749.06736"
       width="295.05566"
       height="112.20426"
       id="rect18085" />
  </defs>
  <g
     inkscape:label="Layer 1"
     inkscape:groupmode="layer"
     id="layer1">
    <rect
       style="fill:#ff819d;fill-opacity:0;stroke:none;stroke-width:1.5;stroke-miterlimit:4;stroke-dasharray:none;stroke-opacity:1"
       id="rect46874"
       width="208"
       height="291"
       x="0"
       y="0" />
    <g
       aria-label="周"
       id="text2312"
       style="font-size:74.0833px;line-height:1.25;font-family:'Microsoft JhengHei';-inkscape-font-specification:'Microsoft JhengHei';stroke-width:0.264583">
      <path
         d="m 66.732916,64.727375 q 0,4.196124 -2.423624,5.534543 -2.423623,1.374593 -8.790157,1.374593 -2.170409,0 -5.317502,-0.07235 l -1.989542,-6.22184 q 9.079545,0 9.947709,-0.03617 0.868163,-0.07235 1.338419,-0.72347 0.470255,-0.687296 0.470255,-1.049031 V 38.21221 H 16.415598 Q 15.800649,62.556966 8.9276865,72.070593 L 3.899572,65.993447 Q 9.8320236,55.575483 9.8320236,36.077975 V 7.8988299 H 66.732916 Z M 59.968474,19.908427 v -5.715411 h -18.37613 v 5.715411 z m -25.104399,0 V 14.193016 H 16.415598 v 5.715411 z m 25.104399,12.009597 v -5.932452 h -18.37613 v 5.932452 z m -25.104399,0 V 25.985572 H 16.415598 v 5.932452 z M 54.650972,61.833496 H 21.805447 V 42.87859 h 32.845525 z m -6.438881,-5.751584 v -7.343217 h -19.93159 v 7.343217 z"
         style="font-weight:bold;-inkscape-font-specification:'Microsoft JhengHei Bold'"
         id="path44201" />
    </g>
    <g
       aria-label="逸"
       id="text2312-9"
       style="font-size:74.0833px;line-height:1.25;font-family:'Microsoft JhengHei';-inkscape-font-specification:'Microsoft JhengHei';stroke-width:0.264583">
      <path
         d="m 69.372567,121.36975 c -0.16881,2.41157 -0.61495,4.19612 -1.338419,5.35367 -0.72347,1.15755 -1.663981,1.9172 -2.821532,2.27893 -1.157551,0.33762 -3.689695,0.50643 -7.596432,0.50643 -2.339219,0 -4.316702,-0.0724 -5.932451,-0.21704 -1.615749,-0.14469 -2.797417,-0.67524 -3.545002,-1.59163 -0.747585,-0.94051 -1.121378,-1.96543 -1.121378,-3.07475 v -9.76684 c -4.533743,6.94531 -11.10526,11.96136 -19.714549,15.04817 l -3.545002,-5.35368 c 9.71861,-3.66557 15.988681,-8.62134 18.810212,-14.8673 H 28.641222 V 95.433359 c -1.229898,0.892279 -2.04983,1.471055 -2.459797,1.736327 l -2.568317,-5.71541 c 7.186466,-5.088404 12.491911,-10.622947 15.916334,-16.60363 l 6.294186,1.772501 c -0.409966,1.012857 -1.145494,2.230698 -2.206583,3.653522 h 16.49511 v 5.534543 c -1.109321,1.495171 -2.83359,3.520886 -5.172809,6.077146 H 65.972259 V 109.68571 H 53.022152 v 12.37133 c 0,0.96463 0.313503,1.50723 0.94051,1.62781 0.627007,0.0965 3.050631,0.1447 7.270871,0.1447 1.567517,0 2.351276,-1.57958 2.351276,-4.73873 z M 52.045467,85.811212 H 39.240054 c -1.615749,1.760443 -3.66558,3.786159 -6.149493,6.077146 h 13.239496 c 2.508028,-2.508029 4.413165,-4.533744 5.71541,-6.077146 z m 7.632606,18.376128 v -6.655919 h -8.898678 c -0.07235,2.001599 -0.21704,4.220239 -0.434081,6.655919 z M 44.340515,97.531421 h -9.332759 v 6.655919 h 8.971024 c 0.120579,-1.51929 0.241157,-3.73793 0.361735,-6.655919 z m 25.936389,35.630879 -1.844848,6.22184 H 39.818829 c -10.65912,0 -18.436419,-2.5442 -23.331898,-7.6326 -1.350477,2.38745 -3.617348,5.49837 -6.8006148,9.33276 L 4.3326404,137.21373 C 10.096282,131.08836 13.930672,123.9863 15.835809,115.90755 H 5.6710594 v -5.93245 c 3.4244231,-4.29259 6.2941866,-8.59723 8.6092896,-12.913934 H 4.7667222 V 90.839327 H 22.129995 v 6.221839 c -2.001599,3.496774 -4.702553,7.704954 -8.102861,12.624544 h 8.464596 v 6.22184 c -0.747585,3.52089 -1.808674,6.92119 -3.183267,10.20092 4.292587,4.70255 10.864104,7.05383 19.71455,7.05383 z"
         style="font-weight:bold;-inkscape-font-specification:'Microsoft JhengHei Bold'"
         id="path44204"
         sodipodi:nodetypes="cscsscscccccccccccccccccscscccccccccccccccccccscccccccccccccccsc" />
      <path
         d="m 62.988567,118.28678 -4.521687,2.67684 c -0.916395,-1.97748 -2.230699,-4.07554 -3.942908,-6.29418 l 4.304644,-2.53215 c 1.736328,1.78456 3.122978,3.83439 4.159951,6.14949 z"
         style="font-weight:bold;-inkscape-font-specification:'Microsoft JhengHei Bold';stroke-width:0.0700042;fill:#f6c5d2;fill-opacity:1"
         id="path52591" />
      <path
         d="m 20.97169,84.59922 -4.485512,4.521687 C 13.80934,86.227027 10.119644,83.043761 5.4170909,79.571105 l 4.5216858,-4.449339 c 4.9195943,3.400309 8.5972313,6.55946 11.0329133,9.477454 z"
         style="font-weight:bold;-inkscape-font-specification:'Microsoft JhengHei Bold';stroke-width:0.0700042;fill:#7ac8c2;fill-opacity:1"
         id="path45770" />
    </g>
    <text
       xml:space="preserve"
       transform="scale(0.26458333)"
       id="text18083"
       style="line-height:1.25;font-family:'Microsoft JhengHei';font-size:40px;-inkscape-font-specification:'Microsoft JhengHei';white-space:pre;shape-inside:url(#rect18085)" />
    <g
       aria-label="化學"
       id="text18883"
       style="font-size:39.6875px;line-height:1.25;font-family:'Microsoft JhengHei';-inkscape-font-specification:'Microsoft JhengHei';stroke-width:0.264583">
      <path
         d="m 14.835422,155.77274 -0.988311,2.71301 q -0.523224,1.43402 -1.02707,2.55798 l -1.085205,2.30606 v 26.62628 H 8.0916479 V 170.05481 Q 6.8320348,171.702 5.1848485,173.6011 l -1.8215942,-3.66256 q 4.6315003,-5.17411 7.7708437,-14.88281 z m 23.293152,24.95971 q -0.174408,4.05014 -0.658874,5.50354 -0.465088,1.43402 -1.220856,2.0929 -0.736389,0.67825 -1.724701,0.96893 -0.968933,0.31006 -5.929871,0.31006 -6.317443,0 -7.402649,-0.34882 -1.085205,-0.34881 -1.627807,-1.37588 -0.523224,-1.04645 -0.523224,-2.57736 v -29.8819 h 3.604431 v 11.78223 h 15.018463 v 3.52691 H 22.645023 v 14.35959 q 0,0.58136 0.639496,0.83328 0.658874,0.23255 5.270996,0.23255 4.108276,0 4.999695,-0.38758 0.910797,-0.38757 0.968933,-6.41433 z"
         style="font-weight:bold;-inkscape-font-specification:'Microsoft JhengHei Bold'"
         id="path44207" />
      <path
         d="m 65.084293,156.29596 q -0.930176,1.24023 -2.577362,2.46109 0.968933,0.85266 1.782837,1.74408 l -2.112274,1.86035 q -0.988312,-1.1821 -1.976624,-1.97662 -2.054138,1.22085 -4.011383,2.01538 l -1.666565,-2.22855 q 1.724701,-0.60074 3.371887,-1.58905 -0.542602,-0.50384 -2.189788,-1.62781 l 1.918487,-1.93786 2.654877,1.89911 q 1.29837,-0.94956 2.054138,-1.86035 z m 12.053528,21.89789 h -3.33313 v -4.51523 H 47.255924 v 4.47647 h -3.526917 v -7.267 h 2.461091 l -0.717011,-14.24331 q 3.856354,-0.17441 7.732086,-1.51154 l 1.627808,2.75177 q -2.771149,0.87204 -5.871735,1.22086 l 0.116272,2.11227 h 5.174103 v 2.57736 h -5.038452 l 0.07751,2.24793 h 4.960937 v 2.55798 h -4.805908 l 0.116272,2.28668 h 21.859131 l 0.07751,-2.28668 h -5.34851 v -2.55798 h 5.484161 l 0.116272,-2.24793 H 66.15012 v -2.57736 h 5.677948 l 0.116272,-2.11227 h -6.065522 v -2.77115 h 9.514923 l -0.639495,14.55337 h 2.383575 z m -11.859741,-9.39865 -2.112274,1.82159 q -1.492157,-1.64719 -2.693634,-2.5386 -2.073517,1.31775 -4.050141,2.22854 l -1.627807,-2.18979 q 1.434021,-0.62011 3.410644,-1.82159 -1.00769,-0.89142 -2.616119,-1.78284 l 1.918487,-1.95724 q 1.046448,0.62011 3.081208,2.11227 1.627807,-1.37588 2.228546,-2.11227 l 2.422332,1.43402 q -1.143341,1.25961 -2.46109,2.34482 1.337128,1.16272 2.499848,2.46109 z m 12.460479,15.23162 H 62.506931 v 2.4611 q 0,1.33712 -0.620117,2.11227 -0.600739,0.77515 -1.550293,1.04645 -0.930176,0.29068 -3.526917,0.29068 -1.201477,0 -2.732391,-0.0775 l -1.143341,-3.21686 q 1.356506,0.0388 5.232239,0.0388 0.71701,0 0.71701,-0.65887 v -1.99601 H 43.167026 v -2.8099 h 15.716095 v -1.70532 q 2.945557,-0.60074 5.484162,-1.5503 H 49.639499 v -2.5386 h 21.122742 v 2.5386 q -3.236236,1.53092 -8.25531,3.02307 v 0.23255 h 15.231628 z"
         style="font-weight:bold;-inkscape-font-specification:'Microsoft JhengHei Bold'"
         id="path44209" />
    </g>
    <g
       aria-label="延平專用講義 氧化還原與電化學"
       transform="matrix(0.26458333,0,0,0.26458333,-12.644625,14.01904)"
       id="text34903"
       style="font-size:55px;line-height:1.25;font-family:'Microsoft JhengHei';-inkscape-font-specification:'Microsoft JhengHei';letter-spacing:0.01px;writing-mode:tb-rl;white-space:pre;shape-inside:url(#rect34905)">
      <path
         d="m 744.69287,616.70898 h -32.33398 v -4.78027 h 4.88769 V 591.7334 h 4.78028 v 20.19531 h 6.55273 v -24.92187 q -9.5874,1.12793 -12.16553,1.20849 l -1.63818,-4.51172 q 15.44189,-0.85937 27.60742,-4.72656 l 2.20215,4.18945 q -4.8877,1.58448 -11.11816,2.84668 v 9.64112 h 10.44677 v 4.61914 h -10.44677 v 11.65527 h 11.22558 z m 0.75195,5.1294 -1.2622,4.94141 -13.37403,0.0806 q -10.63476,0 -15.76416,-1.15478 -5.10254,-1.12793 -8.91601,-4.75342 -2.57813,3.70605 -5.82764,6.66015 l -3.41064,-3.86718 q 3.89404,-3.06153 6.04248,-6.41846 -3.84033,-5.37109 -5.47852,-12.27295 l 3.89404,-1.87988 q 1.10108,4.88769 3.94776,9.80224 1.79931,-4.56543 2.76611,-11.333 h -10.0708 v -4.08203 q 4.53858,-5.34424 9.07715,-12.46094 h -9.29199 v -4.75342 h 15.06592 v 4.75342 q -3.33008,5.02197 -8.40577,12.08496 h 8.62061 q -1.02051,12.48779 -4.56543,19.84619 3.08838,3.08838 7.51953,4.08203 4.45801,0.9668 16.83838,0.9668 6.17676,0 12.59521,-0.2417 z"
         style="font-weight:bold;-inkscape-font-specification:'Microsoft JhengHei Bold';stroke:#ffffff;stroke-opacity:1"
         id="path44212" />
      <path
         d="m 744.90771,665.30052 h -21.4038 v 17.16065 h -4.99512 v -17.16065 h -21.45752 v -4.86084 h 21.45752 v -19.73877 h -20.03418 v -4.83398 h 45.27832 v 4.83398 h -20.24902 v 19.73877 h 21.4038 z m -32.11914,-9.07715 -4.67285,2.14844 q -2.39013,-6.01562 -7.08984,-12.94434 l 4.61914,-2.30957 q 4.05518,5.88135 7.14355,13.10547 z m 28.7085,-10.74218 q -3.57178,7.81494 -7.81494,13.05175 l -4.51172,-2.25586 q 3.86719,-4.67285 7.81494,-13.05175 z"
         style="font-weight:bold;-inkscape-font-specification:'Microsoft JhengHei Bold';stroke:#ffffff;stroke-opacity:1"
         id="path44214" />
      <path
         d="m 744.58545,720.36423 -4.08203,2.36328 q -1.53076,-1.9336 -2.30957,-2.7124 -23.17627,1.31591 -38.51074,1.10107 l -1.26221,-3.89404 q 3.97461,0.0806 9.18457,0.0806 6.90185,0 11.11816,-0.13427 v -2.92725 h -16.78467 v -15.89844 h 16.78467 v -2.57812 H 697.83008 V 691.978 h 20.89355 v -2.71241 h 4.72657 v 2.71241 h 20.57128 v 3.78662 H 723.4502 v 2.57812 h 16.99951 v 15.89844 h -1.42334 q 3.11523,3.16895 5.55908,6.12305 z m -8.86231,-15.6836 v -2.68554 H 723.4502 v 2.68554 z m -16.99951,0 v -2.68554 h -11.97754 v 2.68554 z m 16.99951,5.77393 v -2.4707 H 723.4502 v 2.4707 z m -16.99951,0 v -2.4707 h -11.97754 v 2.4707 z m 17.10694,3.78662 H 723.4502 v 2.76611 q 7.57324,-0.2417 11.17187,-0.67138 -0.61768,-0.75196 -1.04736,-1.10108 z m 9.29199,13.21289 H 734.2998 v 4.67285 q 0,2.12158 -1.23535,3.59864 -1.23535,1.47705 -5.1831,1.47705 -1.66504,0 -5.07569,-0.13428 l -1.2622,-4.35059 q 5.50537,0.0806 6.66015,-0.0537 1.18164,-0.13428 1.18164,-1.20849 v -4.00147 h -32.22656 v -3.97461 h 32.22656 v -1.69189 h 4.91455 v 1.69189 h 10.82276 z m -26.34522,5.72022 -3.6792,3.41064 q -2.9541,-2.20215 -8.54003,-4.96826 l 3.65234,-3.41065 q 4.94141,2.30957 8.56689,4.96827 z"
         style="font-weight:bold;-inkscape-font-specification:'Microsoft JhengHei Bold';stroke:#ffffff;stroke-opacity:1"
         id="path44216" />
      <path
         d="m 742.3833,786.81467 q 0,2.229 -1.61133,3.89404 -1.61133,1.66504 -5.6665,1.66504 -1.85303,0 -3.84033,-0.13428 l -1.47705,-4.83398 6.1499,-0.0537 q 0.64453,0 1.15478,-0.53711 0.51026,-0.56397 0.51026,-1.2085 v -9.90967 h -13.53516 v 15.38819 h -4.67285 V 775.6965 h -13.32031 q -0.91309,10.60791 -4.8877,16.89209 l -4.35058,-2.81982 q 2.30957,-3.4375 3.57177,-9.07715 1.26221,-5.6665 1.26221,-10.82275 v -24.35791 h 40.71289 z m -4.78027,-28.54737 v -7.97607 h -13.53516 v 7.97607 z m -18.20801,0 v -7.97607 h -12.83691 v 7.97607 z m 18.20801,12.81006 v -8.24463 h -13.53516 v 8.24463 z m -18.20801,0 v -8.24463 h -12.83691 v 8.24463 z"
         style="font-weight:bold;-inkscape-font-specification:'Microsoft JhengHei Bold';stroke:#ffffff;stroke-opacity:1"
         id="path44218" />
      <path
         d="m 713.21826,808.76556 h -16.05957 v -4.35058 h 6.12305 q -0.42969,-1.6919 -1.61133,-4.45801 l 4.67285,-1.26221 2.04102,5.72022 h 4.83398 z m 31.95801,29.54102 h -3.35693 v 4.48486 q 0,2.60498 -1.4502,3.54492 -1.45019,0.93995 -4.80713,0.93995 -1.10107,0 -3.08838,-0.0806 l -1.42334,-4.51172 h 4.99512 q 1.2085,0 1.2085,-1.15478 v -3.22266 h -15.95215 v 9.05029 h -4.56543 v -9.05029 h -2.52442 v -3.70606 h 2.52442 v -12.5415 h 10.23193 v -3.06152 h -13.45459 v -3.9209 h 7.19727 v -2.52441 h -4.72657 v -3.73292 h 4.72657 v -2.4707 h -5.82764 v -3.97461 h 5.82764 v -3.08838 h 4.45801 v 3.08838 h 8.02978 v -3.08838 h 4.56543 v 2.98096 h 6.82129 v 3.97461 h -6.82129 v 2.57812 h 4.94141 v 3.73292 h -4.94141 v 2.52441 h 7.19727 v 3.9209 h -13.42774 v 3.06152 h 10.28565 v 12.5415 h 3.35693 z m -11.97754,-29.48731 v -2.4707 h -8.02978 v 2.4707 z m 0,6.25733 v -2.52441 h -8.02978 v 2.52441 z m 4.05518,13.2666 v -2.52441 h -5.72022 v 2.52441 z m -10.28565,0 v -2.4707 h -5.6665 v 2.4707 z m 10.28565,6.25732 v -2.68554 h -5.72022 v 2.68554 z m -10.28565,0 v -2.68554 h -5.6665 v 2.68554 z m -15.06592,-17.69775 h -13.37402 v -4.29687 h 13.37402 z m 0,8.02979 h -13.37402 v -4.35059 h 13.37402 z m 0.10743,21.45752 h -4.56543 v -2.20215 h -4.29688 v 3.41064 h -4.61914 v -18.87939 h 13.48145 z m -4.56543,-6.76758 v -6.44531 h -4.29688 v 6.44531 z"
         style="font-weight:bold;-inkscape-font-specification:'Microsoft JhengHei Bold';stroke:#ffffff;stroke-opacity:1"
         id="path44220" />
      <path
         d="m 736.7168,855.39667 q -1.6919,1.42334 -5.1294,3.41064 l -6.09619,-1.79931 q 2.92725,-1.4502 5.45166,-3.35694 z m -19.52393,1.71875 -5.88135,1.69189 q -2.84668,-2.06787 -5.07568,-3.16894 l 5.88135,-1.82618 q 2.06787,1.07422 5.07568,3.30323 z m 27.82227,18.15429 H 697.2124 v -3.73291 h 21.24268 v -2.39013 h -16.4624 v -3.46436 h 16.4624 v -2.41699 h -19.04053 v -3.78662 h 43.29102 v 3.78662 h -19.04053 v 2.41699 h 16.35498 v 3.46436 h -16.35498 v 2.39013 h 21.3501 z m 0.61767,19.95362 q -2.12158,7.6001 -6.71386,7.6001 -3.54493,0 -8.3252,-5.18311 -5.31738,2.28271 -11.25244,3.70605 l -2.14844,-3.9746 q 6.66016,-1.34278 10.82275,-3.30323 -1.28906,-2.41699 -2.90039,-7.46582 H 713.6748 v 3.41065 l 7.68067,-1.10108 0.18799,3.51807 q -3.11524,0.51025 -7.86866,1.04736 v 4.27002 q 0,1.82617 -1.28906,3.14209 -1.2622,1.34277 -3.33008,1.36963 -2.06787,0.0537 -7.1167,0.0537 l -0.96679,-3.57178 q 6.74072,0 7.27783,-0.21484 0.56396,-0.21484 0.56396,-1.15478 v -3.24952 q -6.31103,0.51026 -10.66162,0.7251 l -0.93994,-3.62549 q 6.09619,-0.18799 11.60156,-0.67138 v -3.94776 h -11.0913 v -3.35693 h 11.0913 v -2.52442 q -4.53857,0.26856 -8.40576,0.26856 l -1.36963,-3.35693 q 1.39649,0.0537 2.81983,0.0537 7.51953,0 17.02637,-1.66504 l 1.66503,3.08838 q -2.4707,0.56396 -6.875,1.10107 v 3.03467 h 10.60791 q -0.64453,-4.78027 -0.7788,-6.33789 h 4.51171 q 0.13428,2.65869 0.93995,6.33789 h 16.05957 v 3.35693 h -15.11963 q 0.7251,2.76612 2.20215,5.15625 1.96045,-1.04736 4.83398,-4.1626 l 3.73291,2.36329 q -2.20215,2.81982 -5.88135,5.37109 0.69825,0.9668 1.98731,1.87988 1.31592,0.88623 1.7456,0.88623 1.07422,0 1.74561,-1.36963 0.69824,-1.36963 1.34277,-3.81347 z m -3.24951,-14.74365 -4.72656,1.93359 q -1.79932,-1.93359 -4.96826,-4.24317 l 4.67285,-1.85302 q 2.84668,1.77246 5.02197,4.1626 z"
         style="font-weight:bold;-inkscape-font-specification:'Microsoft JhengHei Bold';stroke:#ffffff;stroke-opacity:1"
         id="path44222" />
      <g
         aria-label="無機化合物"
         id="text13149"
         style="font-weight:bold;-inkscape-font-specification:'Microsoft JhengHei Bold';stroke:#ffffff;stroke-opacity:1">
        <path
           d="m 676.5907,738.64148 h -47.80274 v -4.45801 h 7.00928 v -7.41211 h -6.01562 v -4.45801 h 6.01562 v -5.72021 q -1.26221,1.10107 -3.75976,3.14209 l -3.62549,-3.78662 q 7.78808,-5.55908 11.70898,-12.05811 l 5.1294,1.42334 q -1.2085,2.33643 -2.92725,4.29688 h 32.79053 v 4.56543 h -36.89942 q -0.72509,0.83252 -2.25586,2.25586 h 4.72657 v 5.88134 h 5.10254 v -5.88134 h 4.67285 v 5.88134 h 5.45166 v -5.88134 h 4.61914 v 5.88134 h 5.45166 v -5.88134 h 4.72656 v 5.88134 h 4.8877 v 4.45801 h -4.8877 v 7.41211 h 5.88135 z m -10.60791,-4.45801 v -7.41211 h -5.45166 v 7.41211 z m -10.0708,0 v -7.41211 h -5.45166 v 7.41211 z m -10.12451,0 v -7.41211 h -5.10254 v 7.41211 z m 31.17919,16.56983 -4.83398,2.09472 q -2.25586,-5.63965 -6.04248,-10.95703 l 4.72656,-2.14844 q 3.81348,5.34424 6.1499,11.01075 z m -37.59765,-8.70118 q -2.63184,6.41846 -6.28418,11.11817 l -4.56543,-2.92725 q 2.98096,-3.4375 6.17676,-10.20508 z m 24.62646,8.8086 -4.72656,1.87988 q -1.58447,-5.23682 -4.45801,-10.44678 l 4.72657,-1.82617 q 3.08837,6.04248 4.458,10.39307 z m -13.07861,0.42969 -4.86084,1.45019 q -0.9668,-5.02197 -3.00781,-10.52734 l 4.67285,-1.63819 q 1.79932,4.21631 3.1958,10.71534 z"
           id="path16625"
           style="stroke:#ffffff;stroke-opacity:1" />
        <path
           d="m 656.90564,783.15099 -3.46436,0.88623 q -0.18798,-1.90674 -0.51025,-2.92725 -4.53857,0.77881 -8.35205,1.15479 l -1.15479,-3.89405 q 1.6919,-1.77246 4.51172,-5.88135 -2.49756,0.21485 -4.00146,0.21485 l -0.88623,-3.51807 q 2.98095,-4.08203 4.51172,-9.80224 l 4.21631,1.34277 q -2.417,5.61279 -3.94776,7.68066 1.15479,0.0806 2.63184,-0.21484 0.53711,-0.88623 1.82617,-3.62549 l 3.73291,1.98731 q -3.4375,6.55273 -7.86865,11.49414 1.77246,-0.0806 3.86718,-0.45655 -0.16113,-1.10107 -0.72509,-2.30957 l 3.30322,-1.15478 q 1.87988,5.61279 2.30957,9.02344 z m 20.1416,15.30761 q -1.47705,9.58741 -6.01562,9.58741 -3.16895,0 -7.25098,-5.74708 -6.71387,4.21631 -10.84961,5.66651 l -2.68555,-4.13574 q 7.49268,-2.81983 11.22559,-5.66651 -1.55762,-3.35693 -2.57813,-8.29834 h -7.86865 l -0.0537,1.31592 q 5.1294,3.51807 6.92871,5.29053 l -2.98096,3.84033 q -1.45019,-1.66504 -4.51171,-4.00146 -1.74561,7.25097 -6.20362,11.87011 l -3.97461,-2.68554 q 5.8545,-5.58594 6.06934,-15.62989 h -4.67285 v -4.51172 h 16.43554 q -1.15478,-9.47998 -1.53076,-25.96923 h 4.56543 q 0.16114,14.93164 1.53076,25.96923 h 3.24952 q -0.16114,-0.7788 -0.88623,-1.69189 l 5.10253,-1.04736 q 0.59083,0.93994 1.50391,2.73925 h 4.78027 v 4.51172 H 663.5658 q 0.37597,2.47071 1.53076,5.23682 2.09472,-1.96045 3.84033,-4.61914 l 4.18945,2.12158 q -2.7124,4.05518 -5.82763,6.76758 2.4707,3.41064 3.27636,3.41064 1.50391,0 2.06787,-6.875 z m -33.4082,-15.95215 -2.84668,2.68555 q -1.28906,-2.90039 -2.09473,-4.18945 v 26.69433 h -4.61914 v -24.27734 q -1.58447,6.28418 -3.94775,10.52734 l -2.14844,-5.77392 q 3.33008,-6.3916 5.20996,-14.79736 h -4.67285 v -4.61915 h 5.55908 v -9.37255 h 4.61914 v 9.37255 h 3.62549 v 4.61915 h -3.62549 v 0.85937 q 3.46436,4.83398 4.94141,8.27148 z m 32.84424,0.37598 -3.35694,1.10108 -0.53711,-3.08838 q -4.80713,0.67138 -8.59375,1.10107 l -1.2622,-3.84033 q 1.66504,-1.50391 4.51172,-5.55908 -2.09473,0.32226 -4.13575,0.53711 l -0.69824,-3.94776 q 2.9541,-4.05517 5.04883,-9.74853 l 4.08203,1.5039 q -1.42334,3.49121 -4.56543,8.0835 1.61133,-0.10742 2.84668,-0.37598 1.34277,-2.25586 2.09473,-3.75976 l 3.89404,1.5039 q -2.79297,5.47852 -7.8418,11.44043 1.15479,-0.0537 3.57178,-0.40283 -0.2417,-1.07422 -0.67139,-1.9873 l 3.35694,-1.07422 q 1.63818,4.27002 2.25586,8.51318 z"
           id="path16627"
           style="stroke:#ffffff;stroke-opacity:1" />
        <path
           d="m 644.31042,815.06528 -1.36962,3.75976 q -0.7251,1.98731 -1.42334,3.54492 l -1.50391,3.19581 v 36.89941 h -5.04883 v -27.60742 q -1.7456,2.28271 -4.02832,4.91455 l -2.52441,-5.07569 q 6.41845,-7.17041 10.76904,-20.625 z m 32.28028,34.58984 q -0.2417,5.61279 -0.91309,7.62695 -0.64453,1.98731 -1.69189,2.90039 -1.02051,0.93995 -2.39014,1.34278 -1.34277,0.42969 -8.21777,0.42969 -8.75489,0 -10.25879,-0.4834 -1.50391,-0.4834 -2.25586,-1.90674 -0.7251,-1.4502 -0.7251,-3.57178 v -41.41113 h 4.99512 V 830.91 h 20.81299 v 4.8877 h -20.81299 v 19.8999 q 0,0.80567 0.88623,1.15479 0.91309,0.32226 7.30469,0.32226 5.69336,0 6.92871,-0.53711 1.2622,-0.53711 1.34277,-8.88916 z"
           id="path16629"
           style="stroke:#ffffff;stroke-opacity:1" />
        <path
           d="m 677.47693,884.71152 -2.87354,4.21631 q -12.97119,-5.98877 -21.94091,-13.5083 -8.21778,6.68701 -21.1084,13.23974 l -3.30323,-4.00146 q 15.52247,-7.1167 23.5254,-15.52246 l 5.23681,1.87988 q -0.45654,0.53711 -0.88623,0.99365 7.86865,6.71387 21.3501,12.70264 z m -12.11182,4.78027 h -25.13672 v -4.72656 h 25.13672 z m 5.29053,28.17139 h -5.12939 v -2.81983 h -25.67383 v 2.81983 h -5.23682 v -22.34375 h 36.04004 z m -5.12939,-7.65381 v -9.96338 h -25.67383 v 9.96338 z"
           id="path16631"
           style="stroke:#ffffff;stroke-opacity:1" />
        <path
           d="m 675.75818,931.53058 q -0.13428,9.37256 -0.59082,20.41015 -0.45654,11.0376 -0.83252,14.09913 -0.34912,3.03466 -1.4502,4.37744 -1.07422,1.34277 -2.41699,1.79931 -1.34277,0.45655 -6.60644,0.45655 -1.87989,0 -3.16895,-0.0806 l -1.42334,-4.61914 q 3.11524,0.16113 5.20996,0.16113 3.4375,0 4.13574,-0.51025 0.69825,-0.51026 0.99366,-1.66504 0.32226,-1.15479 0.72509,-9.8291 0.40284,-8.67432 0.59082,-19.92676 h -1.47705 q -1.36963,11.33301 -5.12939,19.38965 -3.73291,8.02978 -11.14502,15.7373 l -4.08203,-3.16894 q 7.22412,-7.1167 10.87646,-14.4751 3.6792,-7.3584 4.80713,-17.48291 h -2.4707 q -2.9541,14.82422 -12.48779,24.41162 l -3.97461,-3.03467 q 9.07714,-8.3789 11.78955,-21.37695 h -2.30957 q -2.25586,5.47852 -5.34424,9.61426 l -4.13574,-2.47071 q 5.20996,-6.25732 8.32519,-18.98681 l 4.72656,0.83252 q -0.7788,3.33008 -1.87988,6.33789 z M 648.04333,952.263 q -2.20214,0.88623 -5.61279,2.04102 v 18.12744 h -4.78027 v -16.54297 q -2.76611,0.85937 -8.29834,2.41699 l -1.04736,-4.72656 q 4.37744,-1.07422 9.3457,-2.57813 v -10.84961 h -3.78662 q -0.4834,3.24952 -1.61133,7.65381 l -4.21631,-1.20849 q 2.14844,-7.97608 2.68555,-17.93946 l 4.35058,0.77881 q -0.26855,3.62549 -0.61767,6.1499 h 3.1958 v -10.87646 h 4.78027 v 10.87646 h 4.45801 l 0.0537,4.56543 h -4.51172 v 9.23829 q 4.83399,-1.74561 5.23682,-1.90674 z"
           id="path16633"
           style="stroke:#ffffff;stroke-opacity:1" />
      </g>
    </g>
    <rect
       style="fill:#92c6e6;fill-opacity:1;stroke:none;stroke-width:1.5;stroke-miterlimit:4;stroke-dasharray:none;stroke-opacity:1"
       id="rect45550"
       width="26.406645"
       height="5.860105"
       x="21.805449"
       y="42.87859" />
    <rect
       style="fill:#e6b8c4;fill-opacity:1;stroke:none;stroke-width:1.5;stroke-miterlimit:4;stroke-dasharray:none;stroke-opacity:1"
       id="rect45574"
       width="6.4388809"
       height="13.203322"
       x="48.212093"
       y="42.87859" />
    <rect
       style="fill:#7ac8c2;fill-opacity:1;stroke:none;stroke-width:1.5;stroke-miterlimit:4;stroke-dasharray:none;stroke-opacity:1"
       id="rect45598"
       width="26.37047"
       height="5.7515836"
       x="28.2805"
       y="56.081913" />
    <rect
       style="fill:#dbd680;fill-opacity:1;stroke:none;stroke-width:1.5;stroke-miterlimit:4;stroke-dasharray:none;stroke-opacity:1"
       id="rect45622"
       width="6.4750538"
       height="13.094801"
       x="21.805449"
       y="48.738693" />
  </g>
</svg>
